<svg id="Layer_1" data-name="Layer 1" xmlns="http://www.w3.org/2000/svg" xmlns:xlink="http://www.w3.org/1999/xlink" viewBox="0 0 761.89 469.25"><defs><style>.cls-1{fill:none;}.cls-2{clip-path:url(#clip-path);}</style><clipPath id="clip-path" transform="translate(-19 -14.75)"><rect class="cls-1" x="19" y="14.75" width="761.89" height="469.25"/></clipPath></defs><title>vdw_logo</title><polygon points="91.58 0 70.21 69.32 69.18 69.32 47.82 0 0 0 49.88 128.8 89.52 128.8 139.39 0 91.58 0"/><rect x="150.34" width="46.8" height="128.8"/><polygon points="219.12 0 219.12 128.8 307.1 128.8 307.1 93.61 266.27 93.61 266.27 80.97 302.32 80.97 302.32 47.49 266.27 47.49 266.27 35.19 305.74 35.19 305.74 0 219.12 0"/><polygon points="413.46 0 413.85 67.5 374.01 0 329.08 0 329.08 128.8 373.83 128.8 373.62 63.24 413.46 128.8 458.23 128.8 458.23 0 413.46 0"/><polygon points="564.59 0 564.97 67.5 525.14 0 480.2 0 480.2 128.8 524.96 128.8 524.75 63.24 564.59 128.8 609.33 128.8 609.33 0 564.59 0"/><path d="M708.64,57.63h1.7l8.55,39.29H700.1ZM683.18,14.75l-44.76,128.8H688l3.75-16.06h35.36l4.28,16.06h49.53L734.94,14.75Z" transform="translate(-19 -14.75)"/><polygon points="589.5 170.38 634.43 170.38 674.28 237.88 673.88 170.38 718.64 170.38 718.64 299.18 673.88 299.18 634.04 233.61 634.25 299.18 589.5 299.18 589.5 170.38"/><g class="cls-2"><path d="M70.63,275.17h2.91c15.54,0,27.5-7.17,27.5-24.09,0-18.11-10.43-25.79-27.5-25.79H70.63ZM23.82,185H71.48c43.23,0,76.36,19,76.36,66.29,0,38.26-27,62.52-64.74,62.52H23.82Z" transform="translate(-19 -14.75)"/></g><polygon points="145.01 170.21 231.63 170.21 231.63 205.41 192.16 205.41 192.16 217.71 228.21 217.71 228.21 251.19 192.16 251.19 192.16 263.83 232.99 263.83 232.99 299.02 145.01 299.02 145.01 170.21"/><g class="cls-2"><path d="M280,267.65l2.38,1.88c8.37,6.49,18.46,11.78,29.21,11.78,4.62,0,12-1.87,12-7.69s-6.15-6.32-10.42-7.17l-9.4-1.71c-18.27-3.25-33.66-14-33.66-34.17C270.1,200,298,182.92,326,182.92a76.6,76.6,0,0,1,40.83,11.28l-12.64,33c-8-5.47-17.08-9.73-27.16-9.73-4.1,0-10.08,1.53-10.08,6.83,0,4.78,5.8,5.47,9.38,6.32L336.91,233c19.81,4.44,34.15,15,34.15,36.9,0,30.75-28,45.95-55.86,45.95A116.08,116.08,0,0,1,265.66,304Z" transform="translate(-19 -14.75)"/></g><rect x="368.62" y="170.21" width="46.81" height="128.81"/><g class="cls-2"><path d="M592,237.92c-.33,21-.33,38.61-15.54,55-13.65,14.86-34.67,22.89-54.67,22.89-39.28,0-71.06-24.26-71.06-65.6,0-42,30.92-67.31,71.4-67.31,22.38,0,53.14,11.11,63.21,33.14L541.6,232.11c-3.58-6.49-10.26-9.91-17.76-9.91-16.74,0-26,14.35-26,29.9,0,14.18,8.88,27.5,24.08,27.5,7.36,0,16.75-3.42,19-11.28H519.73V237.92Z" transform="translate(-19 -14.75)"/></g><polygon points="156.92 340.43 139.66 410.07 138.64 410.07 120 340.43 86.2 340.43 67.56 410.07 66.54 410.07 49.28 340.43 1.79 340.43 45.86 469.25 84.63 469.25 102.07 399.78 103.61 399.78 120.37 469.25 160.16 469.25 204.57 340.43 156.92 340.43"/><polygon points="214.99 340.43 214.99 469.25 302.96 469.25 302.96 434.06 262.14 434.06 262.14 421.42 298.19 421.42 298.19 387.93 262.14 387.93 262.14 375.63 301.61 375.63 301.61 340.43 214.99 340.43"/><polygon points="324.07 340.43 324.07 469.25 412.05 469.25 412.05 434.06 371.22 434.06 371.22 421.42 407.26 421.42 407.26 387.93 371.22 387.93 371.22 375.63 410.67 375.63 410.67 340.43 324.07 340.43"/><polygon points="507.8 340.43 478.75 396.3 477.73 396.3 478.75 340.43 433.15 340.43 433.15 469.25 478.75 469.25 477.73 415.26 478.75 415.26 508.82 469.25 563.15 469.25 518.56 403.13 558.88 340.43 507.8 340.43"/></svg>